<svg width="137.000000" height="72.000000" viewBox="0 0 137 72" fill="none" xmlns="http://www.w3.org/2000/svg" xmlns:xlink="http://www.w3.org/1999/xlink">
	<desc>
			Created with Pixso.
	</desc>
	<defs>
		<clipPath id="clip1_165">
			<rect id="Group 19 2" rx="-0.500000" width="136.000000" height="71.000000" transform="translate(0.500000 0.500000)" fill="white" fill-opacity="0"/>
		</clipPath>
	</defs>
	<rect id="Group 19 2" rx="-0.500000" width="136.000000" height="71.000000" transform="translate(0.500000 0.500000)" fill="#FFFFFF" fill-opacity="0"/>
	<g clip-path="url(#clip1_165)">
		<path id="Vector" d="M4.96 61.5L8.1 61.5C8.59 61.5 8.84 61.46 9.07 61.37C9.6 61.15 10 60.68 10 60.03C10 59.38 9.61 58.9 9.07 58.67C8.84 58.58 8.6 58.53 8.09 58.53L4.96 58.53L4.96 61.5ZM4.96 68L3.09 68L3.09 56.79L8.32 56.79C9.19 56.79 9.76 56.94 10.25 57.22C11.21 57.75 11.85 58.75 11.85 60.02C11.85 61.25 11.21 62.28 10.24 62.81C9.75 63.08 9.19 63.24 8.32 63.24L4.96 63.24L4.96 68ZM18.86 56.79L20.95 56.79L24 62.53L26.95 56.79L29.04 56.79L24.73 64.89C24.2 65.89 23.86 66.49 23.36 67.01C22.78 67.6 22.07 68.02 21.14 68.02C20.47 68.02 19.82 67.81 19.26 67.42L20.22 65.83C20.5 66.03 20.82 66.14 21.16 66.14C21.82 66.14 22.22 65.75 22.72 64.84C22.73 64.81 22.98 64.36 22.98 64.36L18.86 56.79ZM36.62 56.79L37.63 56.79L42.48 62.63L47.33 56.79L48.34 56.79L48.34 68L46.47 68L46.47 60.35L42.48 65.21L38.49 60.35L38.49 68L36.62 68L36.62 56.79ZM56.32 56.78L65.79 56.78L65.79 58.53L61.98 58.53L61.98 68L60.11 68L60.11 58.53L56.32 58.53L56.32 56.78ZM81.56 68L81.56 60.17L74.77 68L73.76 68L73.76 56.79L75.63 56.79L75.63 64.6C77.89 62 80.15 59.39 82.42 56.79L83.43 56.79L83.43 68L81.56 68ZM100.77 64.67C100.77 65.98 100.11 67.02 99.11 67.57C98.62 67.84 98.03 68 97.16 68L92.03 68L92.03 56.79L99.75 56.79L99.75 58.53L93.89 58.53L93.89 61.35L97.16 61.35C98.03 61.35 98.62 61.5 99.1 61.78C100.11 62.32 100.77 63.39 100.77 64.67ZM98.92 64.67C98.92 63.96 98.5 63.46 97.93 63.21C97.7 63.12 97.44 63.07 96.94 63.07L93.89 63.07L93.89 66.26L96.93 66.26C97.45 66.26 97.71 66.21 97.93 66.11C98.5 65.88 98.92 65.36 98.92 64.67ZM108.85 56.79L116.5 56.79L116.5 58.53L110.72 58.53L110.72 60.99L115.2 60.99L115.2 62.71L110.72 62.71L110.72 66.26L116.5 66.26L116.5 68L108.85 68L108.85 56.79ZM124.09 56.78L133.56 56.78L133.56 58.53L129.76 58.53L129.76 68L127.88 68L127.88 58.53L124.09 58.53L124.09 56.78Z" fill="#FFFFFF" fill-opacity="1.000000" fill-rule="nonzero"/>
		<mask id="mask1_168" mask-type="alpha" maskUnits="userSpaceOnUse" x="0.000000" y="0.000000" width="137.000000" height="48.000000">
			<path id="Vector" d="M0 0L137 0L137 48L0 48L0 0Z" fill="#000000" fill-opacity="1.000000" fill-rule="evenodd"/>
		</mask>
		<g mask="url(#mask1_168)">
			<path id="Vector" d="M0.15 27.91C0.39 27.85 24.81 22.03 43.19 13.88C45.24 12.97 46.9 12.43 48.29 12.18C46.73 13.75 37.54 17.68 44.88 18.37C51.61 19.01 40.52 27.01 35.43 29.91C22.05 34.15 13.36 35.82 13.21 35.85L13.39 36.83C13.44 36.82 14.22 36.67 15.62 36.36C23 34.73 47.76 28.62 76.17 14.65C80.15 12.69 83.4 11.6 86.14 11.2C85.34 15.31 76.05 24.41 90.88 26.71C104.41 28.81 77.28 34.13 67.17 36.84C65.71 37.23 64.6 37.57 64.03 37.83C59.56 39.88 111.46 38.04 134.67 37.95C135.43 37.97 136.2 37.99 137 37.99L137 36.99C116.27 36.99 108.92 27.51 103.02 19.89C96.89 11.98 92.05 5.72 75.73 13.75C71.93 15.61 68.1 17.39 64.23 19.09C60.8 17.87 58.73 16.12 56.91 14.58C53.53 11.71 51.09 9.65 42.93 13.27C24.6 21.4 0.24 27.2 0 27.26L0.15 27.91Z" fill="#FDFDFD" fill-opacity="1.000000" fill-rule="nonzero"/>
		</g>
	</g>
</svg>
