<svg width="24.000000" height="24.000000" viewBox="0 0 24 24" fill="none" xmlns="http://www.w3.org/2000/svg" xmlns:xlink="http://www.w3.org/1999/xlink">
	<desc>
			Created with Pixso.
	</desc>
	<defs>
		<clipPath id="clip1_101">
			<rect id="iconamoon:zoom-in-light" rx="-0.500000" width="23.000000" height="23.000000" transform="translate(0.500000 0.500000)" fill="white" fill-opacity="0"/>
		</clipPath>
	</defs>
	<rect id="iconamoon:zoom-in-light" rx="-0.500000" width="23.000000" height="23.000000" transform="translate(0.500000 0.500000)" fill="#FFFFFF" fill-opacity="0"/>
	<g clip-path="url(#clip1_101)">
		<path id="Vector" d="M21 21L16.65 16.65M18.39 14.06C18.79 13.09 19 12.05 19 11C19 9.94 18.79 8.9 18.39 7.93C17.98 6.96 17.39 6.08 16.65 5.34C15.91 4.6 15.03 4.01 14.06 3.6C13.09 3.2 12.05 3 11 3C9.94 3 8.9 3.2 7.93 3.6C6.96 4.01 6.08 4.6 5.34 5.34C3.84 6.84 2.99 8.87 2.99 11C2.99 13.12 3.84 15.15 5.34 16.65C6.84 18.15 8.87 19 11 19C13.12 19 15.15 18.15 16.65 16.65C17.39 15.91 17.98 15.03 18.39 14.06ZM11 8L11 14M8 11L14 11" stroke="#FFFFFF" stroke-opacity="1.000000" stroke-width="1.500000" stroke-linejoin="round" stroke-linecap="round"/>
	</g>
</svg>
