<svg width="50.000000" height="50.000000" viewBox="0 0 50 50" fill="none" xmlns="http://www.w3.org/2000/svg" xmlns:xlink="http://www.w3.org/1999/xlink">
	<desc>
			Created with Pixso.
	</desc>
	<defs>
		<clipPath id="clip1_19">
			<rect id="fluent:play-12-filled" rx="-0.500000" width="21.000000" height="21.000000" transform="translate(14.500000 14.500000)" fill="white" fill-opacity="0"/>
		</clipPath>
	</defs>
	<rect id="Rectangle 6" rx="25.000000" width="50.000000" height="50.000000" fill="#FDFDFD" fill-opacity="0.600000"/>
	<rect id="fluent:play-12-filled" rx="-0.500000" width="21.000000" height="21.000000" transform="translate(14.500000 14.500000)" fill="#FFFFFF" fill-opacity="0"/>
	<g clip-path="url(#clip1_19)">
		<path id="Vector" d="M22.24 17.65C21.96 17.49 21.64 17.41 21.32 17.41C21 17.41 20.69 17.5 20.41 17.66C20.13 17.82 19.9 18.05 19.74 18.33C19.58 18.61 19.5 18.92 19.5 19.24L19.5 30.75C19.5 31.07 19.58 31.39 19.74 31.66C19.9 31.94 20.13 32.17 20.41 32.34C20.69 32.5 21 32.58 21.32 32.58C21.64 32.58 21.96 32.5 22.24 32.34L32.31 26.59C32.59 26.43 32.82 26.19 32.98 25.91C33.14 25.64 33.23 25.32 33.23 25C33.23 24.67 33.14 24.35 32.98 24.08C32.82 23.8 32.59 23.56 32.31 23.4L22.24 17.65Z" fill="#1A3E3E" fill-opacity="1.000000" fill-rule="nonzero"/>
	</g>
</svg>
