<svg width="26.666672" height="26.666748" viewBox="0 0 26.6667 26.6667" fill="none" xmlns="http://www.w3.org/2000/svg" xmlns:xlink="http://www.w3.org/1999/xlink">
	<desc>
			Created with Pixso.
	</desc>
	<defs/>
	<path id="Vector" d="M9.38 26.05C10.66 26.43 11.96 26.66 13.33 26.66C16.86 26.66 20.26 25.26 22.76 22.76C25.26 20.26 26.66 16.86 26.66 13.33C26.66 11.58 26.32 9.84 25.65 8.23C24.98 6.61 23.99 5.14 22.76 3.9C21.52 2.66 20.05 1.68 18.43 1.01C16.81 0.34 15.08 0 13.33 0C11.58 0 9.84 0.34 8.23 1.01C6.61 1.68 5.14 2.66 3.9 3.9C1.4 6.4 0 9.79 0 13.33C0 19 3.56 23.86 8.58 25.78C8.46 24.74 8.34 23.02 8.58 21.84L10.12 15.25C10.12 15.25 9.73 14.48 9.73 13.25C9.73 11.41 10.88 10.04 12.18 10.04C13.33 10.04 13.86 10.87 13.86 11.96C13.86 13.1 13.1 14.74 12.72 16.32C12.49 17.62 13.41 18.77 14.74 18.77C17.12 18.77 18.95 16.24 18.95 12.66C18.95 9.46 16.66 7.28 13.37 7.28C9.61 7.28 7.39 10.08 7.39 13.02C7.39 14.17 7.77 15.33 8.38 16.09C8.5 16.17 8.5 16.28 8.46 16.48L8.08 17.93C8.08 18.15 7.93 18.24 7.7 18.08C6 17.33 5.01 14.9 5.01 12.94C5.01 8.73 8 4.9 13.76 4.9C18.34 4.9 21.92 8.19 21.92 12.57C21.92 17.15 19.08 20.84 15.01 20.84C13.72 20.84 12.45 20.14 12 19.33L11.1 22.49C10.8 23.63 9.96 25.17 9.38 26.09L9.38 26.05Z" fill="#FFFFFF" fill-opacity="1.000000" fill-rule="nonzero"/>
</svg>
