<svg width="50.000000" height="50.000000" viewBox="0 0 50 50" fill="none" xmlns="http://www.w3.org/2000/svg" xmlns:xlink="http://www.w3.org/1999/xlink">
	<desc>
			Created with Pixso.
	</desc>
	<defs>
		<clipPath id="clip1_37">
			<rect id="Frame" rx="-0.500000" width="35.000000" height="35.000000" transform="translate(7.500000 7.500000)" fill="white" fill-opacity="0"/>
		</clipPath>
	</defs>
	<rect id="Rectangle 12" rx="4.000000" width="50.000000" height="50.000000" fill="#E5EEEB" fill-opacity="1.000000"/>
	<rect id="Frame" rx="-0.500000" width="35.000000" height="35.000000" transform="translate(7.500000 7.500000)" fill="#FFFFFF" fill-opacity="0"/>
	<g clip-path="url(#clip1_37)">
		<path id="Vector" d="M19.03 31.92L22.67 31.92L22.67 32.23L19.03 32.23L19.03 31.92ZM35.03 31.92L43 31.92L43 32.23L35.03 32.23L35.03 31.92ZM34.84 20.87C35.17 21.33 35.44 21.73 35.65 22.09C35.72 20.94 35.92 20.24 36.12 19.84L36.12 23C36.22 23.26 36.29 23.53 36.3 23.81C36.3 24.02 36.26 24.2 36.18 24.37C36.16 24.41 36.14 24.45 36.12 24.48L36.12 30.38C36.12 30.61 36.21 30.84 36.37 31C36.53 31.16 36.75 31.25 36.99 31.25C37.22 31.25 37.44 31.16 37.6 31C37.76 30.84 37.85 30.61 37.85 30.38L37.85 24.04L38.18 24.04L38.18 30.38C38.18 30.61 38.27 30.84 38.43 31C38.6 31.16 38.82 31.25 39.05 31.25C39.28 31.25 39.5 31.16 39.66 31C39.83 30.84 39.92 30.61 39.92 30.38L39.92 23.28C37.94 21.15 36.58 18.8 36.25 18.21C36.19 18.23 36.12 18.26 36.06 18.29C35.68 18.48 35.27 18.89 34.98 19.62C34.86 19.92 34.76 20.28 34.68 20.71C34.74 20.76 34.79 20.81 34.84 20.87ZM34.5 23.33L34.51 23.39L34.54 23.4C34.53 23.38 34.52 23.35 34.5 23.33Z" fill="#45766A" fill-opacity="1.000000" fill-rule="nonzero"/>
		<path id="Vector" d="M37.43 19.69C38.04 20.61 38.89 21.79 39.92 22.93L39.92 19.84C39.96 19.93 40 20.02 40.04 20.14C40.24 20.69 40.41 21.59 40.41 23C40.41 23.38 40.4 23.81 40.37 24.28C40.36 24.35 40.37 24.43 40.4 24.5C40.43 24.57 40.47 24.64 40.52 24.7C40.57 24.75 40.64 24.8 40.71 24.83C40.78 24.86 40.85 24.87 40.93 24.87C41.07 24.87 41.21 24.82 41.32 24.72C41.42 24.62 41.48 24.49 41.49 24.34C41.52 23.89 41.53 23.44 41.53 23C41.53 20.87 41.19 19.7 40.73 18.99C40.5 18.64 40.23 18.42 39.98 18.29C39.73 18.17 39.51 18.14 39.39 18.14L39.38 18.14C39.38 18.14 39.38 18.14 39.38 18.14L36.66 18.14C36.66 18.14 36.65 18.14 36.65 18.14L36.65 18.14C36.6 18.14 36.55 18.15 36.5 18.15C36.65 18.43 36.97 18.99 37.43 19.69Z" fill="#45766A" fill-opacity="1.000000" fill-rule="nonzero"/>
		<path id="Vector" d="M39.6 16.16C39.6 17.03 38.89 17.74 38.02 17.74C37.14 17.74 36.44 17.03 36.44 16.16C36.44 15.29 37.14 14.58 38.02 14.58C38.89 14.58 39.6 15.29 39.6 16.16Z" fill="#45766A" fill-opacity="1.000000" fill-rule="evenodd"/>
		<path id="Vector" d="M11.76 25.87L11.76 40.02C11.76 40.84 12.43 41.51 13.26 41.51C14.08 41.51 14.75 40.84 14.75 40.02L14.75 29.1L15.31 29.1L15.31 40.02C15.31 40.84 15.98 41.51 16.81 41.51C17.63 41.51 18.3 40.84 18.3 40.02L18.3 21.88C18.38 22.04 18.46 22.22 18.52 22.39C18.86 23.33 19.15 24.89 19.15 27.31C19.15 27.97 19.12 28.71 19.08 29.51C19.05 30.04 19.45 30.5 19.99 30.53C20.24 30.55 20.5 30.46 20.69 30.29C20.88 30.12 20.99 29.88 21.01 29.62C21.06 28.78 21.08 28.01 21.08 27.31C21.08 23.65 20.49 21.63 19.7 20.42C19.3 19.82 18.84 19.43 18.41 19.21C17.99 19 17.62 18.96 17.41 18.96C17.39 18.96 17.38 18.95 17.37 18.95L16.8 18.95L16.5 21.28L15.32 19.86L16.14 18.95L13.92 18.95L14.74 19.86L13.56 21.28L13.26 18.95L12.7 18.95C12.66 18.95 12.62 18.96 12.59 18.96C12.16 18.97 11.72 18.99 11.29 19C11.17 19.01 11.05 19.01 10.93 19.01C10.24 19.02 9.65 18.92 9.37 18.75C9.22 18.66 9.15 18.58 9.07 18.45C9 18.31 8.93 18.09 8.93 17.72C8.93 17.32 9.02 16.74 9.24 16C9.32 15.75 9.29 15.49 9.17 15.26C9.05 15.03 8.85 14.86 8.6 14.79C8.59 14.79 8.59 14.79 8.58 14.78L8.58 12.26C8.84 11.84 9.52 11.08 10.7 11.78C13.89 13.69 14.08 9.24 14.08 9.24C14.08 9.24 12.41 10.17 11.2 9.08C10.18 8.16 8.94 8.68 8.58 8.87L8.58 8.48L8.14 8.48L8.14 14.76C7.96 14.8 7.8 14.88 7.67 15C7.54 15.11 7.44 15.26 7.39 15.43C7.13 16.31 7 17.05 7 17.72C6.99 18.33 7.11 18.88 7.36 19.36C7.74 20.07 8.4 20.5 9.04 20.7C9.68 20.91 10.32 20.94 10.93 20.94C10.97 20.94 11 20.94 11.03 20.94C11.28 20.94 11.53 20.93 11.76 20.92L11.76 25.87Z" fill="#45766A" fill-opacity="1.000000" fill-rule="nonzero"/>
		<path id="Vector" d="M15.48 18.23C16.77 18.02 17.75 16.9 17.75 15.54C17.75 14.04 16.54 12.82 15.03 12.82C13.53 12.82 12.31 14.04 12.31 15.54C12.31 16.9 13.3 18.02 14.59 18.23C14.73 18.25 14.88 18.27 15.03 18.27C15.18 18.27 15.33 18.25 15.48 18.23ZM29.22 24.11C29.1 22.89 28.82 22.12 28.48 21.6C28.25 21.25 27.98 21.02 27.73 20.9C27.48 20.77 27.26 20.75 27.14 20.75L27.14 20.75C27.14 20.75 27.13 20.75 27.13 20.75L26.65 20.75C26.87 21.68 26.92 22.54 26.92 23.18C26.92 23.57 26.9 23.88 26.88 24.08L26.88 25.37L24.66 25.37L24.66 24.08C24.63 23.78 24.62 23.48 24.62 23.18C24.62 22.54 24.68 21.68 24.9 20.75L24.41 20.75C24.41 20.75 24.41 20.75 24.4 20.75L24.4 20.75C24.28 20.75 24.06 20.77 23.81 20.9C23.43 21.09 23.02 21.5 22.74 22.22C22.45 22.95 22.26 24.01 22.26 25.6C22.26 26.01 22.27 26.46 22.3 26.95C22.31 27.09 22.37 27.23 22.47 27.33C22.58 27.42 22.72 27.48 22.86 27.48C22.87 27.48 22.88 27.48 22.89 27.48C23.04 27.47 23.18 27.4 23.28 27.29C23.38 27.18 23.43 27.03 23.42 26.88C23.39 26.46 23.38 26.03 23.38 25.6C23.38 23.9 23.63 22.94 23.87 22.45L23.87 32.99C23.87 33.22 23.96 33.44 24.13 33.61C24.29 33.77 24.51 33.86 24.74 33.86C24.97 33.86 25.19 33.77 25.35 33.61C25.52 33.44 25.61 33.22 25.61 32.99L25.61 26.64L25.93 26.64L25.93 32.99C25.93 33.22 26.03 33.44 26.19 33.61C26.35 33.77 26.57 33.86 26.8 33.86C27.03 33.86 27.26 33.77 27.42 33.61C27.58 33.44 27.67 33.22 27.67 32.99L27.67 22.45C27.72 22.53 27.76 22.63 27.8 22.75C28 23.3 28.16 24.2 28.16 25.6C28.16 25.99 28.15 26.42 28.12 26.88C28.11 27.09 28.21 27.27 28.37 27.38C28.43 26.33 28.58 25.49 28.85 24.82C28.96 24.54 29.09 24.3 29.22 24.11Z" fill="#45766A" fill-opacity="1.000000" fill-rule="nonzero"/>
		<path id="Vector" d="M24.83 23.18C24.83 23.51 24.84 23.77 24.86 23.96L26.68 23.96C26.7 23.77 26.71 23.51 26.71 23.18C26.71 22.54 26.65 21.68 26.43 20.75L25.12 20.75C24.89 21.68 24.83 22.54 24.83 23.18Z" fill="#45766A" fill-opacity="1.000000" fill-rule="nonzero"/>
		<path id="Vector" d="M27.35 18.77C27.35 19.64 26.65 20.35 25.77 20.35C24.9 20.35 24.19 19.64 24.19 18.77C24.19 17.89 24.9 17.18 25.77 17.18C26.65 17.18 27.35 17.89 27.35 18.77Z" fill="#45766A" fill-opacity="1.000000" fill-rule="evenodd"/>
		<path id="Vector" d="M26.17 24.7C26.17 24.92 25.99 25.1 25.77 25.1C25.55 25.1 25.37 24.92 25.37 24.7C25.37 24.49 25.55 24.31 25.77 24.31C25.99 24.31 26.17 24.49 26.17 24.7Z" fill="#45766A" fill-opacity="1.000000" fill-rule="evenodd"/>
		<path id="Vector" d="M31.28 20.62L33.45 20.62C33.17 20.17 32.67 19.87 32.1 19.87C31.23 19.87 30.52 20.58 30.52 21.46C30.52 22.33 31.23 23.04 32.1 23.04C32.69 23.04 33.2 22.71 33.48 22.24L31.28 22.24L31.28 20.62L31.28 20.62Z" fill="#45766A" fill-opacity="1.000000" fill-rule="nonzero"/>
		<path id="Vector" d="M33.06 21.43C33.06 21.67 32.87 21.86 32.63 21.86C32.39 21.86 32.2 21.67 32.2 21.43C32.2 21.19 32.39 21 32.63 21C32.87 21 33.06 21.19 33.06 21.43Z" fill="#45766A" fill-opacity="1.000000" fill-rule="evenodd"/>
		<path id="Vector" d="M36.05 23.82C36.05 23.46 35.92 23.11 35.7 22.67C35.47 22.23 35.13 21.69 34.64 21.02C34.6 20.96 34.55 20.91 34.48 20.87C34.42 20.83 34.35 20.8 34.28 20.79C34.2 20.78 34.13 20.78 34.06 20.8C33.99 20.82 33.92 20.85 33.86 20.89C33.8 20.94 33.75 20.99 33.71 21.05C33.67 21.12 33.65 21.19 33.63 21.26C33.62 21.33 33.63 21.41 33.64 21.48C33.66 21.55 33.69 21.62 33.73 21.68C34.2 22.32 34.51 22.82 34.7 23.18C34.82 23.41 34.88 23.58 34.91 23.69C34.75 23.69 34.49 23.64 34.24 23.58C34.11 23.55 33.98 23.52 33.85 23.49C33.74 23.47 33.63 23.45 33.52 23.44C33.5 23.44 33.48 23.44 33.46 23.44L30.75 23.44C30.74 23.44 30.74 23.44 30.74 23.44L30.74 23.44C30.61 23.44 30.39 23.46 30.14 23.59C29.76 23.78 29.36 24.19 29.07 24.91C28.78 25.64 28.59 26.7 28.59 28.29C28.59 28.7 28.6 29.15 28.63 29.64C28.64 29.79 28.71 29.93 28.82 30.03C28.93 30.12 29.07 30.18 29.22 30.17C29.37 30.16 29.51 30.09 29.61 29.98C29.71 29.87 29.76 29.72 29.75 29.57C29.73 29.15 29.71 28.72 29.71 28.29C29.71 26.59 29.96 25.63 30.2 25.13L30.2 35.68C30.2 36.16 30.59 36.55 31.07 36.55C31.55 36.55 31.94 36.16 31.94 35.68L31.94 29.33L32.27 29.33L32.27 35.68C32.27 35.91 32.36 36.13 32.52 36.29C32.68 36.46 32.91 36.55 33.14 36.55C33.25 36.55 33.36 36.53 33.47 36.48C33.57 36.44 33.67 36.37 33.75 36.29C33.83 36.21 33.9 36.12 33.94 36.01C33.98 35.91 34.01 35.79 34.01 35.68L34.01 24.68C34.07 24.7 34.14 24.71 34.21 24.73C34.44 24.77 34.68 24.82 34.94 24.82C35.16 24.82 35.4 24.79 35.65 24.63C35.78 24.54 35.89 24.41 35.96 24.27C36.03 24.12 36.05 23.97 36.05 23.82Z" fill="#45766A" fill-opacity="1.000000" fill-rule="nonzero"/>
	</g>
</svg>
