<svg width="24.000000" height="24.000000" viewBox="0 0 24 24" fill="none" xmlns="http://www.w3.org/2000/svg" xmlns:xlink="http://www.w3.org/1999/xlink">
	<desc>
			Created with Pixso.
	</desc>
	<defs/>
	<path id="Vector" d="M20 4C22.76 6.71 23.8 10.52 23.14 14.06C23.69 15.02 24 16.14 24 17.33C24 19.1 23.29 20.79 22.04 22.04C20.79 23.29 19.1 24 17.33 24C16.14 24 15.02 23.69 14.06 23.14C10.52 23.8 6.72 22.76 4 20C1.24 17.28 0.19 13.48 0.85 9.93C0.3 8.97 0 7.85 0 6.66C0 4.89 0.7 3.2 1.95 1.95C3.2 0.7 4.89 0 6.66 0C7.85 0 8.97 0.3 9.93 0.85C13.48 0.19 17.28 1.23 20 4ZM12.05 18.87C15.88 18.87 17.78 17.04 17.78 14.56C17.78 12.97 17.04 11.28 14.14 10.62L11.49 10.04C10.48 9.81 9.33 9.5 9.33 8.56C9.33 7.6 10.13 6.93 11.6 6.93C14.57 6.93 14.29 8.97 15.77 8.97C16.54 8.97 17.21 8.52 17.21 7.73C17.21 5.9 14.29 4.53 11.81 4.53C9.13 4.53 6.26 5.67 6.26 8.71C6.26 10.18 6.78 11.74 9.66 12.46L13.25 13.37C14.33 13.63 14.6 14.24 14.6 14.8C14.6 15.7 13.69 16.6 12.05 16.6C8.84 16.6 9.28 14.13 7.56 14.13C6.78 14.13 6.22 14.66 6.22 15.42C6.22 16.9 8 18.87 12.05 18.87Z" fill="#FFFFFF" fill-opacity="1.000000" fill-rule="nonzero"/>
</svg>
