<svg width="26.666656" height="26.666748" viewBox="0 0 26.6667 26.6667" fill="none" xmlns="http://www.w3.org/2000/svg" xmlns:xlink="http://www.w3.org/1999/xlink">
	<desc>
			Created with Pixso.
	</desc>
	<defs/>
	<path id="Vector" d="M13.33 0C5.97 0 0 5.97 0 13.33C0 20.69 5.97 26.66 13.33 26.66C20.69 26.66 26.66 20.69 26.66 13.33C26.66 5.97 20.69 0 13.33 0ZM19.52 9.06C19.32 11.17 18.45 16.29 18.01 18.65C17.82 19.65 17.45 19.98 17.1 20.02C16.33 20.09 15.74 19.52 15 19.02C13.82 18.25 13.16 17.77 12.02 17.02C10.7 16.15 11.56 15.67 12.32 14.9C12.52 14.7 15.93 11.6 16 11.32C16 11.27 16 11.23 15.99 11.19C15.98 11.14 15.96 11.11 15.93 11.08C15.85 11.01 15.74 11.04 15.65 11.05C15.53 11.08 13.66 12.32 10.02 14.77C9.49 15.13 9.01 15.32 8.58 15.3C8.1 15.29 7.2 15.04 6.51 14.81C5.67 14.54 5.02 14.39 5.07 13.93C5.1 13.69 5.44 13.45 6.06 13.2C9.95 11.5 12.54 10.38 13.84 9.85C17.54 8.3 18.3 8.04 18.81 8.04C18.92 8.04 19.17 8.06 19.33 8.19C19.46 8.3 19.5 8.45 19.52 8.56C19.5 8.63 19.53 8.87 19.52 9.06Z" fill="#FFFFFF" fill-opacity="1.000000" fill-rule="nonzero"/>
</svg>
