<svg width="26.720001" height="26.719971" viewBox="0 0 26.72 26.72" fill="none" xmlns="http://www.w3.org/2000/svg" xmlns:xlink="http://www.w3.org/1999/xlink">
	<desc>
			Created with Pixso.
	</desc>
	<defs/>
	<path id="Vector" d="M13.36 0C5.98 0 0 5.98 0 13.36C0 20.73 5.98 26.72 13.36 26.72C20.73 26.72 26.72 20.73 26.72 13.36C26.72 5.98 20.73 0 13.36 0ZM18.49 15.07C18.49 15.07 19.67 16.23 19.97 16.78C19.97 16.79 19.98 16.8 19.98 16.8C20.1 17 20.13 17.16 20.07 17.27C19.97 17.46 19.64 17.56 19.52 17.57L17.44 17.57C17.29 17.57 16.99 17.53 16.62 17.28C16.34 17.08 16.06 16.75 15.79 16.44C15.38 15.97 15.03 15.56 14.68 15.56C14.63 15.56 14.59 15.57 14.55 15.58C14.28 15.67 13.94 16.05 13.94 17.07C13.94 17.38 13.69 17.57 13.51 17.57L12.55 17.57C12.23 17.57 10.53 17.45 9.03 15.87C7.19 13.93 5.53 10.03 5.52 10C5.41 9.74 5.63 9.61 5.87 9.61L7.97 9.61C8.25 9.61 8.35 9.78 8.41 9.93C8.49 10.11 8.76 10.81 9.21 11.6C9.95 12.89 10.4 13.41 10.76 13.41C10.82 13.41 10.89 13.4 10.95 13.36C11.42 13.1 11.33 11.42 11.31 11.08C11.31 11.01 11.31 10.33 11.07 10C10.9 9.76 10.6 9.67 10.43 9.64C10.5 9.54 10.59 9.46 10.7 9.4C11.03 9.24 11.61 9.22 12.18 9.22L12.51 9.22C13.13 9.22 13.29 9.26 13.52 9.32C13.98 9.43 13.99 9.73 13.95 10.74C13.94 11.03 13.92 11.36 13.92 11.74C13.92 11.82 13.92 11.91 13.92 12.01C13.91 12.52 13.89 13.11 14.25 13.35C14.3 13.38 14.36 13.4 14.41 13.4C14.54 13.4 14.92 13.4 15.95 11.63C16.27 11.05 16.55 10.46 16.78 9.85C16.8 9.82 16.86 9.7 16.94 9.66C16.99 9.63 17.05 9.62 17.11 9.62L19.59 9.62C19.86 9.62 20.04 9.66 20.08 9.77C20.14 9.93 20.07 10.44 18.93 11.97L18.43 12.64C17.4 13.98 17.4 14.05 18.49 15.07Z" fill="#FFFFFF" fill-opacity="1.000000" fill-rule="nonzero"/>
</svg>
